<svg id="SvgjsSvg1001" width="288" height="288" xmlns="http://www.w3.org/2000/svg" version="1.1" xmlns:xlink="http://www.w3.org/1999/xlink" xmlns:svgjs="http://svgjs.com/svgjs"><rect id="SvgjsRect1012" width="288" height="288" rx="58" ry="58" transform="matrix(0.9999999999999999,0,0,0.9999999999999999,2.842170943040401e-14,2.842170943040401e-14)" fill="#87ddfd"></rect><defs id="SvgjsDefs1002"></defs><g id="SvgjsG1008" transform="matrix(0.81,0,0,0.81,27.359589042663572,27.3604116821289)"><svg xmlns="http://www.w3.org/2000/svg" viewBox="0 0 24 24" width="288" height="288"><path fill="#000000" fill-rule="evenodd" d="M12 4a8 8 0 0 0-6.76 12.28 1 1 0 0 1 .104.851L4.58 19.42l2.288-.763a1 1 0 0 1 .852.105A8 8 0 1 0 12 4ZM2 12C2 6.477 6.477 2 12 2s10 4.477 10 10-4.477 10-10 10a9.96 9.96 0 0 1-4.935-1.3l-3.749 1.249a1 1 0 0 1-1.265-1.265l1.25-3.749A9.959 9.959 0 0 1 2 12Z" clip-rule="evenodd" class="svgShape color000000-0 selectable"></path><path fill="#000000" fill-rule="evenodd" d="M6.203 10.448a5.977 5.977 0 0 1 1.554-2.69 5.977 5.977 0 0 1 2.69-1.555l.517 1.933A3.977 3.977 0 0 0 9.17 9.172a3.977 3.977 0 0 0-1.035 1.792l-1.933-.516Zm7.35-4.245a5.978 5.978 0 0 1 2.69 1.554 5.977 5.977 0 0 1 1.554 2.69l-1.933.517a3.977 3.977 0 0 0-1.036-1.792 3.977 3.977 0 0 0-1.792-1.036l.516-1.933Zm-5.796 10.04a5.977 5.977 0 0 1-1.554-2.69l1.933-.517c.175.656.52 1.276 1.036 1.792.516.517 1.136.861 1.791 1.036l-.515 1.933a5.976 5.976 0 0 1-2.69-1.554Zm8.486 0a5.977 5.977 0 0 1-2.69 1.554l-.517-1.933a3.978 3.978 0 0 0 1.792-1.036 3.977 3.977 0 0 0 1.036-1.792l1.933.516a5.977 5.977 0 0 1-1.554 2.69Z" clip-rule="evenodd" class="svgShape color000000-1 selectable"></path></svg></g></svg>